<svg width="32" height="32" viewBox="0 0 32 32" fill="none" xmlns="http://www.w3.org/2000/svg">
<path d="M4 7.66699C4 7.11471 4.44772 6.66699 5 6.66699H26.3353C26.8876 6.66699 27.3353 7.11471 27.3353 7.66699C27.3353 8.21928 26.8876 8.66699 26.3353 8.66699H5C4.44772 8.66699 4 8.21928 4 7.66699Z" fill="#222222"/>
<path d="M4 16.0081C4 15.4559 4.44772 15.0081 5 15.0081H26.3353C26.8876 15.0081 27.3353 15.4559 27.3353 16.0081C27.3353 16.5604 26.8876 17.0081 26.3353 17.0081H5C4.44772 17.0081 4 16.5604 4 16.0081Z" fill="#222222"/>
<path d="M5 23.3483C4.44772 23.3483 4 23.796 4 24.3483C4 24.9006 4.44772 25.3483 5 25.3483H26.3353C26.8876 25.3483 27.3353 24.9006 27.3353 24.3483C27.3353 23.796 26.8876 23.3483 26.3353 23.3483H5Z" fill="#222222"/>
</svg>
